<svg width="256" height="119" viewBox="0 0 256 119" fill="none" xmlns="http://www.w3.org/2000/svg">
<path fill-rule="evenodd" clip-rule="evenodd" d="M1 31.5073H15.8423C16.0614 31.5073 16.2736 31.4776 16.475 31.4219C17.2606 32.8868 18.7776 33.8792 20.5202 33.8792C23.0694 33.8792 25.1359 31.7554 25.1359 29.1355C25.1359 26.5156 23.0694 24.3918 20.5202 24.3918C18.7777 24.3918 17.2607 25.3841 16.4751 26.8489C16.2737 26.7933 16.0614 26.7636 15.8423 26.7636H1V7.8942C1 4.08664 4.08664 1 7.89419 1H253.607L253.631 1.00004H246.27V84.7917C246.27 86.672 247.038 88.4706 248.396 89.771L252.874 94.0594C254.232 95.3598 255 97.1585 255 99.0387V118.534L240.523 118.534C240.517 118.534 240.511 118.534 240.505 118.534H9.4528V98.9732C9.4528 97.1315 8.71597 95.3665 7.40656 94.0714L3.04624 89.759C1.73684 88.4639 1 86.6988 1 84.8572V69.4573H15.8411C16.0606 69.4573 16.2731 69.4275 16.4749 69.3717C17.2604 70.8367 18.7775 71.8292 20.5202 71.8292C23.0694 71.8292 25.1359 69.7054 25.1359 67.0855C25.1359 64.4657 23.0694 62.3418 20.5202 62.3418C18.7776 62.3418 17.2605 63.3343 16.475 64.7992C16.2732 64.7434 16.0606 64.7136 15.8411 64.7136H1V50.4822H15.8411C16.061 50.4822 16.2739 50.4523 16.476 50.3963C17.2616 51.8612 18.7787 52.8537 20.5212 52.8537C23.0704 52.8537 25.137 50.7298 25.137 48.1099C25.137 45.4901 23.0704 43.3662 20.5212 43.3662C18.7784 43.3662 17.2611 44.359 16.4756 45.8243C16.2737 45.7684 16.0609 45.7385 15.8411 45.7385H1V31.5073Z" fill="black"/>
<path fill-rule="evenodd" clip-rule="evenodd" d="M1 31.5073H15.8423C16.0614 31.5073 16.2736 31.4776 16.475 31.4219C17.2606 32.8868 18.7776 33.8792 20.5202 33.8792C23.0694 33.8792 25.1359 31.7554 25.1359 29.1355C25.1359 26.5156 23.0694 24.3918 20.5202 24.3918C18.7777 24.3918 17.2607 25.3841 16.4751 26.8489C16.2737 26.7933 16.0614 26.7636 15.8423 26.7636H1V7.8942C1 4.08664 4.08664 1 7.89419 1H253.607L253.631 1.00004H246.27V84.7917C246.27 86.672 247.038 88.4706 248.396 89.771L252.874 94.0594C254.232 95.3598 255 97.1585 255 99.0387V118.534L240.523 118.534C240.517 118.534 240.511 118.534 240.505 118.534H9.4528V98.9732C9.4528 97.1315 8.71597 95.3665 7.40656 94.0714L3.04624 89.759C1.73684 88.4639 1 86.6988 1 84.8572V69.4573H15.8411C16.0606 69.4573 16.2731 69.4275 16.4749 69.3717C17.2604 70.8367 18.7775 71.8292 20.5202 71.8292C23.0694 71.8292 25.1359 69.7054 25.1359 67.0855C25.1359 64.4657 23.0694 62.3418 20.5202 62.3418C18.7776 62.3418 17.2605 63.3343 16.475 64.7992C16.2732 64.7434 16.0606 64.7136 15.8411 64.7136H1V50.4822H15.8411C16.061 50.4822 16.2739 50.4523 16.476 50.3963C17.2616 51.8612 18.7787 52.8537 20.5212 52.8537C23.0704 52.8537 25.137 50.7298 25.137 48.1099C25.137 45.4901 23.0704 43.3662 20.5212 43.3662C18.7784 43.3662 17.2611 44.359 16.4756 45.8243C16.2737 45.7684 16.0609 45.7385 15.8411 45.7385H1V31.5073Z" fill="url(#paint0_linear_3249_1608)"/>
<path d="M1 31.5073V31.0773H0.57V31.5073H1ZM16.475 31.4219L16.854 31.2187L16.6917 30.916L16.3606 31.0074L16.475 31.4219ZM16.4751 26.8489L16.3607 27.2634L16.6917 27.3548L16.8541 27.0522L16.4751 26.8489ZM1 26.7636H0.57V27.1936H1V26.7636ZM253.607 1L253.608 0.57H253.607V1ZM253.631 1.00004V1.43004L253.632 0.570043L253.631 1.00004ZM246.27 1.00004V0.570042H245.84V1.00004H246.27ZM248.396 89.771L248.098 90.0816L248.396 89.771ZM252.874 94.0594L253.171 93.7488L252.874 94.0594ZM255 118.534V118.964H255.43V118.534H255ZM240.523 118.534V118.104V118.534ZM9.4528 118.534H9.0228V118.964H9.4528V118.534ZM7.40656 94.0714L7.70894 93.7657L7.70894 93.7657L7.40656 94.0714ZM3.04624 89.759L3.34861 89.4532H3.34861L3.04624 89.759ZM1 69.4573V69.0273H0.57V69.4573H1ZM16.4749 69.3717L16.8538 69.1685L16.6915 68.8656L16.3603 68.9572L16.4749 69.3717ZM16.475 64.7992L16.3603 65.2136L16.6915 65.3053L16.8539 65.0024L16.475 64.7992ZM1 64.7136H0.57V65.1436H1V64.7136ZM1 50.4822V50.0522H0.57V50.4822H1ZM16.476 50.3963L16.855 50.1931L16.6925 49.8901L16.3612 49.9819L16.476 50.3963ZM16.4756 45.8243L16.3609 46.2387L16.6922 46.3305L16.8546 46.0275L16.4756 45.8243ZM1 45.7385H0.57V46.1685H1V45.7385ZM15.8423 31.0773H1V31.9373H15.8423V31.0773ZM16.3606 31.0074C16.1961 31.0529 16.0224 31.0773 15.8423 31.0773V31.9373C16.1004 31.9373 16.3511 31.9022 16.5895 31.8364L16.3606 31.0074ZM20.5202 33.4492C18.9466 33.4492 17.5698 32.5534 16.854 31.2187L16.0961 31.6252C16.9515 33.2202 18.6087 34.3092 20.5202 34.3092V33.4492ZM24.7059 29.1355C24.7059 31.5291 22.8209 33.4492 20.5202 33.4492V34.3092C23.3179 34.3092 25.5659 31.9817 25.5659 29.1355H24.7059ZM20.5202 24.8218C22.8209 24.8218 24.7059 26.742 24.7059 29.1355H25.5659C25.5659 26.2893 23.3179 23.9618 20.5202 23.9618V24.8218ZM16.8541 27.0522C17.5699 25.7175 18.9466 24.8218 20.5202 24.8218V23.9618C18.6088 23.9618 16.9516 25.0507 16.0962 26.6457L16.8541 27.0522ZM15.8423 27.1936C16.0224 27.1936 16.1961 27.218 16.3607 27.2634L16.5896 26.4344C16.3512 26.3686 16.1005 26.3336 15.8423 26.3336V27.1936ZM1 27.1936H15.8423V26.3336H1V27.1936ZM0.57 7.8942V26.7636H1.43V7.8942H0.57ZM7.89419 0.57C3.84915 0.57 0.57 3.84916 0.57 7.8942H1.43C1.43 4.32413 4.32412 1.43 7.89419 1.43V0.57ZM253.607 0.57H7.89419V1.43H253.607V0.57ZM253.632 0.570043L253.608 0.570001L253.606 1.43L253.63 1.43004L253.632 0.570043ZM246.27 1.43004H253.631V0.570042H246.27V1.43004ZM246.7 84.7917V1.00004H245.84V84.7917H246.7ZM248.693 89.4605C247.42 88.2412 246.7 86.5547 246.7 84.7917H245.84C245.84 86.7892 246.656 88.7001 248.098 90.0816L248.693 89.4605ZM253.171 93.7488L248.693 89.4605L248.098 90.0816L252.577 94.37L253.171 93.7488ZM255.43 99.0387C255.43 97.0412 254.614 95.1304 253.171 93.7488L252.577 94.37C253.85 95.5893 254.57 97.2758 254.57 99.0387H255.43ZM255.43 118.534V99.0387H254.57V118.534H255.43ZM240.523 118.964L255 118.964V118.104L240.523 118.104V118.964ZM240.505 118.964C240.508 118.964 240.511 118.964 240.514 118.964C240.517 118.964 240.52 118.964 240.523 118.964V118.104C240.52 118.104 240.517 118.104 240.514 118.104C240.511 118.104 240.508 118.104 240.505 118.104V118.964ZM9.4528 118.964H240.505V118.104H9.4528V118.964ZM9.0228 98.9732V118.534H9.8828V98.9732H9.0228ZM7.10419 94.3771C8.33193 95.5914 9.0228 97.2464 9.0228 98.9732H9.8828C9.8828 97.0167 9.10001 95.1415 7.70894 93.7657L7.10419 94.3771ZM2.74387 90.0647L7.10419 94.3771L7.70894 93.7657L3.34861 89.4532L2.74387 90.0647ZM0.57 84.8572C0.57 86.8137 1.35279 88.6889 2.74387 90.0647L3.34861 89.4532C2.12088 88.239 1.43 86.584 1.43 84.8572H0.57ZM0.57 69.4573V84.8572H1.43V69.4573H0.57ZM15.8411 69.0273H1V69.8873H15.8411V69.0273ZM16.3603 68.9572C16.1955 69.0028 16.0215 69.0273 15.8411 69.0273V69.8873C16.0997 69.8873 16.3508 69.8521 16.5895 69.7861L16.3603 68.9572ZM20.5202 71.3992C18.9464 71.3992 17.5696 70.5033 16.8538 69.1685L16.0959 69.5749C16.9512 71.1701 18.6086 72.2592 20.5202 72.2592V71.3992ZM24.7059 67.0855C24.7059 69.4791 22.8209 71.3992 20.5202 71.3992V72.2592C23.3179 72.2592 25.5659 69.9317 25.5659 67.0855H24.7059ZM20.5202 62.7718C22.8209 62.7718 24.7059 64.692 24.7059 67.0855H25.5659C25.5659 64.2393 23.3179 61.9118 20.5202 61.9118V62.7718ZM16.8539 65.0024C17.5697 63.6677 18.9465 62.7718 20.5202 62.7718V61.9118C18.6087 61.9118 16.9514 63.0009 16.096 64.596L16.8539 65.0024ZM15.8411 65.1436C16.0215 65.1436 16.1956 65.1681 16.3603 65.2136L16.5896 64.3848C16.3509 64.3187 16.0997 64.2836 15.8411 64.2836V65.1436ZM1 65.1436H15.8411V64.2836H1V65.1436ZM0.57 50.4822V64.7136H1.43V50.4822H0.57ZM15.8411 50.0522H1V50.9122H15.8411V50.0522ZM16.3612 49.9819C16.1961 50.0276 16.0219 50.0522 15.8411 50.0522V50.9122C16.1002 50.9122 16.3517 50.8769 16.5909 50.8107L16.3612 49.9819ZM20.5212 52.4237C18.9476 52.4237 17.5707 51.5278 16.855 50.1931L16.0971 50.5995C16.9524 52.1946 18.6097 53.2837 20.5212 53.2837V52.4237ZM24.707 48.1099C24.707 50.5035 22.8219 52.4237 20.5212 52.4237V53.2837C23.3189 53.2837 25.567 50.9562 25.567 48.1099H24.707ZM20.5212 43.7962C22.8219 43.7962 24.707 45.7164 24.707 48.1099H25.567C25.567 45.2637 23.3189 42.9362 20.5212 42.9362V43.7962ZM16.8546 46.0275C17.5703 44.6924 18.9473 43.7962 20.5212 43.7962V42.9362C18.6094 42.9362 16.9519 44.0256 16.0967 45.6212L16.8546 46.0275ZM15.8411 46.1685C16.0217 46.1685 16.1959 46.193 16.3609 46.2387L16.5904 45.4099C16.3514 45.3437 16.1 45.3085 15.8411 45.3085V46.1685ZM1 46.1685H15.8411V45.3085H1V46.1685ZM0.57 31.5073V45.7385H1.43V31.5073H0.57Z" fill="white"/>
<defs>
<linearGradient id="paint0_linear_3249_1608" x1="60.8487" y1="-128.802" x2="118.857" y2="120.66" gradientUnits="userSpaceOnUse">
<stop stop-color="white" stop-opacity="0.3"/>
<stop offset="1" stop-color="white" stop-opacity="0.1"/>
</linearGradient>
</defs>
</svg>
